<mxfile host="app.diagrams.net" modified="2021-03-31T08:40:19.641Z" agent="5.0 (Windows)" etag="oy7FfEZEe8hnNcG69jKz" version="14.5.3" type="github">
  <diagram id="jitVlzeSvl8X-fnwrCtG" name="Page-1">
    <mxGraphModel dx="905" dy="354" grid="1" gridSize="10" guides="1" tooltips="1" connect="1" arrows="1" fold="1" page="1" pageScale="1" pageWidth="827" pageHeight="1169" math="0" shadow="0">
      <root>
        <mxCell id="0" />
        <mxCell id="1" parent="0" />
      </root>
    </mxGraphModel>
  </diagram>
</mxfile>
